<svg viewBox="170 1200 4750 3150" xmlns:xlink="http://www.w3.org/1999/xlink" xmlns="http://www.w3.org/2000/svg" style="max-height: 500px" width="4750" height="3150">

<path d="M 1620.691406 1344.859375 L 2008.011719 1973.441406 L 1794.410156 2062.460938 L 1620.691406 1344.859375" fill-opacity="1" fill="rgb(100%, 71.875%, 0%)" fill-rule="evenodd"/>
<path d="M 934.160156 1793.890625 L 1522 2240.628906 L 1354.839844 2400.660156 L 934.160156 1793.890625" fill-opacity="1" fill="rgb(100%, 71.875%, 0%)" fill-rule="evenodd"/>
<path d="M 454.574219 2462.390625 L 1164.140625 2666.46875 L 1066.109375 2876.089844 L 454.574219 2462.390625" fill-opacity="1" fill="rgb(100%, 71.875%, 0%)" fill-rule="evenodd"/>
<path d="M 220.144531 3407.238281 L 988.929688 3231.378906 L 988.929688 3407.238281 L 220.144531 3407.238281" fill-opacity="1" fill="rgb(100%, 71.875%, 0%)" fill-rule="evenodd"/>
<path d="M 4779.859375 3407.238281 L 4011.070312 3231.378906 L 4011.070312 3407.238281 L 4779.859375 3407.238281" fill-opacity="1" fill="rgb(100%, 71.875%, 0%)" fill-rule="evenodd"/>
<path d="M 4530.539062 2511.300781 L 3909.25 2910.210938 L 3816.28125 2698.300781 L 4530.539062 2511.300781" fill-opacity="1" fill="rgb(100%, 71.875%, 0%)" fill-rule="evenodd"/>
<path d="M 4039.339844 1804.050781 L 3614.699219 2408.050781 L 3448.589844 2246.941406 L 4039.339844 1804.050781" fill-opacity="1" fill="rgb(100%, 71.875%, 0%)" fill-rule="evenodd"/>
<path d="M 3349.019531 1347.691406 L 3172.949219 2064.71875 L 2959.640625 1974.988281 L 3349.019531 1347.691406" fill-opacity="1" fill="rgb(100%, 71.875%, 0%)" fill-rule="evenodd"/>
<path d="M 1102.390625 3410.238281 C 1102.390625 2648.589844 1719.828125 2031.160156 2481.480469 2031.160156 C 3243.121094 2031.160156 3860.558594 2648.589844 3860.558594 3410.238281 L 1102.390625 3410.238281" fill-opacity="1" fill="rgb(100%, 71.875%, 0%)" fill-rule="evenodd"/>
</svg>